<svg width="1444" height="935" viewBox="0 0 1444 935" fill="none" xmlns="http://www.w3.org/2000/svg">
<rect width="1444" height="935" fill="white"/>
<rect width="1422.93" height="904.987" transform="matrix(1 0 0 -1 10 919.993)" stroke="#F5F5F5" stroke-width="1.70087"/>
<rect width="543.493" height="559.287" transform="matrix(1 0 0 -1 891.506 574.286)" stroke="#F5F5F5" stroke-width="1.70087"/>
<rect width="335.945" height="345.71" transform="matrix(1 0 0 -1 1099.05 919.993)" stroke="#F5F5F5" stroke-width="1.70087"/>
<rect width="207.547" height="213.58" transform="matrix(1 0 0 -1 891.506 919.993)" stroke="#F5F5F5" stroke-width="1.70087"/>
<rect width="128.398" height="132.13" transform="matrix(1 0 0 -1 891.506 706.413)" stroke="#F5F5F5" stroke-width="1.70087"/>
<rect width="79.1494" height="81.4499" transform="matrix(1 0 0 -1 1019.9 655.737)" stroke="#F5F5F5" stroke-width="1.70087"/>
<rect width="49.2486" height="50.68" transform="matrix(1 0 0 -1 1049.81 706.413)" stroke="#F5F5F5" stroke-width="1.70087"/>
<rect width="29.9009" height="30.77" transform="matrix(1 0 0 -1 1019.9 706.413)" stroke="#F5F5F5" stroke-width="1.70087"/>
<rect width="19.3476" height="19.91" transform="matrix(1 0 0 -1 1019.9 675.645)" stroke="#F5F5F5" stroke-width="1.70087"/>
<path d="M11.7012 919.993C11.7012 801.365 34.4063 683.899 78.5205 574.304C122.635 464.709 187.293 365.131 268.801 281.255C350.308 197.38 447.069 130.849 553.558 85.4585C660.046 40.0682 774.178 16.7076 889.438 16.7075V15.0063C773.948 15.0064 659.589 38.4143 552.891 83.894C446.193 129.374 349.244 196.035 267.581 280.071C185.918 364.106 121.139 463.872 76.9434 573.669C32.7476 683.467 9.99999 801.148 10 919.993H11.7012ZM1433.97 574.288C1433.97 500.842 1419.91 428.115 1392.59 360.26C1365.28 292.405 1325.25 230.751 1274.78 178.817C1224.31 126.883 1164.4 85.686 1098.46 57.5796C1032.52 29.4732 961.845 15.0073 890.473 15.0073V16.7085C961.615 16.7085 1032.06 31.1281 1097.79 59.145C1163.52 87.162 1223.25 128.229 1273.56 180.002C1323.87 231.776 1363.79 293.244 1391.02 360.896C1418.25 428.548 1432.26 501.059 1432.26 574.288H1433.97ZM1099.05 918.292C1072.03 918.291 1045.27 912.814 1020.29 902.17C995.324 891.526 972.631 875.924 953.515 856.251C934.398 836.579 919.231 813.221 908.883 787.511C898.696 762.203 893.375 735.104 893.211 707.717L893.207 706.413C893.207 689.278 896.487 672.313 902.857 656.485C909.228 640.657 918.566 626.278 930.333 614.168C942.1 602.06 956.067 592.456 971.435 585.906C986.802 579.355 1003.27 575.984 1019.9 575.984V575.991C1030.07 575.991 1040.13 578.05 1049.53 582.054C1058.92 586.058 1067.46 591.928 1074.65 599.331C1081.84 606.734 1087.55 615.526 1091.45 625.205C1095.35 634.884 1097.35 645.26 1097.35 655.74H1097.35C1097.35 662.177 1096.12 668.551 1093.73 674.496C1091.33 680.441 1087.83 685.841 1083.41 690.387C1078.99 694.933 1073.75 698.536 1067.99 700.994C1062.22 703.451 1056.04 704.715 1049.81 704.715V706.417C1056.27 706.417 1062.68 705.105 1068.65 702.558C1074.63 700.011 1080.06 696.279 1084.63 691.573C1089.2 686.867 1092.83 681.279 1095.31 675.13C1097.78 668.982 1099.05 662.391 1099.05 655.736H1099.05C1099.05 645.041 1097 634.451 1093.03 624.57C1089.05 614.688 1083.22 605.709 1075.87 598.146C1068.52 590.583 1059.8 584.583 1050.19 580.49C1040.59 576.397 1030.3 574.29 1019.9 574.29V574.284C1003.04 574.284 986.345 577.701 970.768 584.341C955.19 590.981 941.035 600.714 929.112 612.983C917.19 625.252 907.732 639.819 901.279 655.849C894.827 671.88 891.506 689.062 891.506 706.414C891.506 734.461 896.875 762.234 907.305 788.146C917.735 814.059 933.023 837.603 952.295 857.436C971.567 877.269 994.447 893.001 1019.63 903.735C1044.81 914.468 1071.8 919.993 1099.05 919.993V918.292ZM1099.05 919.999C1143.17 919.998 1186.86 911.056 1227.62 893.683C1268.37 876.31 1305.41 850.845 1336.6 818.744C1367.8 786.642 1392.54 748.531 1409.43 706.588C1426.31 664.646 1435 619.691 1435 574.292H1433.3C1433.3 619.474 1424.65 664.213 1407.85 705.954C1391.05 747.694 1366.42 785.616 1335.38 817.558C1304.34 849.5 1267.5 874.835 1226.95 892.119C1186.4 909.402 1142.94 918.298 1099.05 918.298V919.999ZM1021.61 675.643C1021.61 673.245 1022.06 670.871 1022.96 668.659C1023.85 666.446 1025.15 664.439 1026.79 662.75C1028.43 661.062 1030.38 659.724 1032.51 658.813C1034.65 657.902 1036.94 657.434 1039.25 657.434V655.733C1036.71 655.733 1034.19 656.248 1031.85 657.249C1029.5 658.249 1027.37 659.716 1025.57 661.565C1023.77 663.414 1022.35 665.608 1021.38 668.024C1020.4 670.439 1019.9 673.029 1019.9 675.643H1021.61ZM1049.8 704.715C1046.11 704.715 1042.44 703.966 1039.03 702.509C1035.61 701.052 1032.5 698.916 1029.88 696.219C1027.26 693.522 1025.18 690.317 1023.75 686.787C1022.33 683.256 1021.6 679.47 1021.6 675.646H1019.9C1019.9 679.687 1020.68 683.688 1022.18 687.421C1023.68 691.154 1025.88 694.547 1028.66 697.404C1031.44 700.261 1034.73 702.528 1038.36 704.075C1041.99 705.621 1045.88 706.417 1049.8 706.417V704.715Z" fill="#F5F5F5"/>
</svg>
